<svg width="40" height="20" viewBox="0 0 40 20" fill="none" xmlns="http://www.w3.org/2000/svg">
<path d="M19.9709 0.0171503C19.9836 -0.00586751 20.0165 -0.0056404 20.0292 0.0173768C21.319 2.35912 23.7653 4.4534 27.0503 6.14292C27.0859 6.16123 27.0638 6.22012 27.0249 6.21048C25.8393 5.91655 24.4975 5.75012 23.0761 5.75012C18.2584 5.75012 14.3525 7.65298 14.3525 10.0001C14.3527 12.3472 18.2585 14.2501 23.0761 14.2501C24.4985 14.2501 25.841 14.0825 27.0273 13.7881C27.0661 13.7784 27.0883 13.8373 27.0527 13.8556C23.7664 15.5454 21.3193 17.6405 20.0292 19.9829C20.0165 20.0059 19.9836 20.0061 19.9709 19.9831C17.3117 15.1546 9.73521 11.377 0.0287063 10.0336C-0.0095684 10.0283 -0.00956897 9.97188 0.0287058 9.96658C9.73522 8.62319 17.3117 4.84562 19.9709 0.0171503ZM30.4041 7.69583C30.3727 7.6722 30.4018 7.61715 30.4386 7.63091C33.2526 8.68234 36.4736 9.48267 39.9712 9.96671C40.0094 9.972 40.0094 10.0282 39.9712 10.0335C36.4736 10.5175 33.2525 11.317 30.4385 12.3684C30.4017 12.3821 30.3726 12.3271 30.404 12.3035C31.286 11.6397 31.7987 10.8499 31.7988 10.0001C31.7988 9.15021 31.2862 8.35977 30.4041 7.69583Z" fill="black"/>
</svg>
