<svg width="137" height="35" viewBox="0 0 137 35" fill="none" xmlns="http://www.w3.org/2000/svg">
<path d="M-8.28654e-05 14.4399L2.39392 12.6539C4.74992 10.9059 6.99192 9.76589 8.09392 9.76589C8.66392 9.76589 9.04392 10.3359 9.04392 11.1719C9.04392 11.8939 8.89192 12.9959 8.70192 13.7179L6.64992 21.1659C6.15592 22.9139 5.88992 24.2059 5.88992 24.6999C5.88992 24.9279 6.07992 25.1179 6.30792 25.1179C6.72592 25.1179 7.33392 24.8139 8.66392 23.9779L9.68992 23.3319L10.1459 24.3959C9.72792 24.6999 9.57592 24.7759 9.08192 25.1559C6.00392 27.3599 4.21792 28.2339 2.77392 28.2339C2.05192 28.2339 1.55792 27.5879 1.55792 26.5999C1.55792 25.9919 1.67192 25.1559 1.78592 24.6239L4.02792 15.4659C4.25592 14.5159 4.33192 14.1739 4.33192 13.9079C4.33192 13.6799 4.17992 13.5279 3.95192 13.5279C3.60992 13.5279 2.08992 14.2879 1.32992 14.8199L0.493917 15.4279L-8.28654e-05 14.4399ZM5.73792 4.74989C5.73792 3.19189 6.87792 1.93789 8.28392 1.93789C9.53792 1.93789 10.4119 2.88789 10.4119 4.21789C10.4119 5.77589 9.30992 6.91589 7.78992 6.91589C6.53592 6.91589 5.73792 6.07989 5.73792 4.74989ZM12.3122 13.9839L15.5042 11.6279C17.2142 10.3739 18.4682 9.76589 19.3802 9.76589C20.0262 9.76589 20.4062 10.1839 20.4062 10.9059C20.4062 11.9699 20.1782 13.0719 19.1142 16.8719L18.4682 19.1519C19.7982 16.8719 20.4822 15.9599 21.7742 14.5159C24.3582 11.7039 27.3982 9.76589 29.1842 9.76589C30.0582 9.76589 30.6662 10.4119 30.6662 11.3619C30.6662 11.8559 30.4382 13.0719 30.0582 14.5159L28.2342 21.5079C27.9302 22.7239 27.7402 23.7879 27.7402 24.4719C27.7402 24.8899 27.8922 25.1179 28.1582 25.1179C28.5382 25.1179 28.9562 24.8899 29.8682 24.2819L30.9702 23.5219L31.4642 24.5479C31.0842 24.8139 30.8942 24.9659 30.3622 25.3459C27.5122 27.4739 25.9922 28.2339 24.6242 28.2339C23.8262 28.2339 23.2562 27.5499 23.2562 26.6379C23.2562 25.5359 23.8642 22.8379 25.0802 18.5819C25.6502 16.6439 26.0302 14.9339 26.0302 14.3259C26.0302 13.7939 25.7642 13.5279 25.2702 13.5279C23.4462 13.5279 20.0262 17.7079 18.5442 21.7359C18.0882 23.0279 17.4042 25.6879 17.1762 27.4359C15.8082 27.5119 13.9842 27.8159 13.1482 28.0819L12.7682 27.6639C14.5162 22.4199 15.9982 16.2639 15.9982 14.1739C15.9982 13.7559 15.8462 13.5279 15.5802 13.5279C15.1622 13.5279 14.6302 13.7559 14.0222 14.1739L12.8062 15.0099L12.3122 13.9839ZM34.2254 24.9279C34.2254 21.2039 35.5174 16.3019 37.0374 14.3639C37.9874 13.1099 40.3434 11.3999 42.5094 10.4119C43.4974 9.95589 44.3334 9.76589 45.3594 9.76589C46.1194 9.76589 46.7274 9.84189 47.8294 10.1079L48.5134 5.85189C48.6274 5.05389 48.6654 4.82589 48.6654 4.40789C48.6654 3.30589 48.2474 2.81189 47.2214 2.81189H45.5114L45.7774 1.74789C49.5774 1.17789 51.4394 0.759889 53.3014 -0.000109792L53.6814 0.34189C53.4914 1.17789 53.3014 1.97589 53.1494 2.81189L49.0834 22.9899C48.9694 23.5979 48.8934 24.1299 48.8934 24.5099C48.8934 24.8139 49.1214 25.1179 49.4254 25.1179C49.6154 25.1179 49.9954 24.8899 51.2874 24.0539L52.2754 23.4079L52.6174 24.4719L51.2494 25.4599C49.0074 27.0559 46.9174 28.2339 46.0814 28.2339C45.3594 28.2339 44.7514 27.5499 44.7514 26.6759C44.7514 26.1439 44.8274 25.4979 45.0174 24.7759L46.5374 18.5439C44.0674 22.6479 42.8134 24.3199 41.0274 25.8779C39.1654 27.4739 37.7974 28.2339 36.6194 28.2339C35.2514 28.2339 34.2254 26.8279 34.2254 24.9279ZM38.5574 24.0919C38.5574 24.6999 38.9374 25.1179 39.4694 25.1179C40.1914 25.1179 41.3314 24.2819 42.4334 22.8759C44.4474 20.3679 46.0434 17.6319 46.4614 15.9599L47.3734 12.3499C45.9674 11.8179 45.2074 11.6659 44.1434 11.6659C42.2434 11.6659 41.5594 12.1599 40.6854 14.1739C39.5834 16.6819 38.5574 21.5459 38.5574 24.0919ZM54.9607 23.8639C54.9607 21.1659 55.9867 17.2519 57.2407 15.0099C58.7227 12.3879 63.2447 9.76589 66.2467 9.76589C68.4127 9.76589 69.7807 11.0579 69.7807 13.0719C69.7807 15.3139 68.4507 17.0619 65.7147 18.3539C64.1187 19.1139 62.7507 19.5319 59.4827 20.2539C59.3307 21.3559 59.2927 21.9259 59.2927 22.6859C59.2927 24.6619 60.2807 25.8019 62.0667 25.8019C63.6247 25.8019 65.3727 25.0799 68.2227 23.2559L68.6027 24.3199C68.1467 24.6239 67.9567 24.6999 67.5007 25.0039C63.7007 27.4359 61.8767 28.2339 59.5587 28.2339C56.7087 28.2339 54.9607 26.5619 54.9607 23.8639ZM59.6347 19.2659L61.1927 18.8099C64.3087 17.8979 66.2087 15.9219 66.2087 13.6039C66.2087 12.3499 65.5247 11.5899 64.3847 11.5899C62.5227 11.5899 61.0027 13.5279 60.1667 17.0619L59.6347 19.2659ZM71.2196 27.7019C71.5616 26.2199 71.7136 25.2699 71.8276 23.8639L72.7396 23.7879L72.9676 24.9659C73.3856 25.1179 73.6896 25.1939 74.0316 25.1939C75.1716 25.1939 76.2736 24.4339 77.3756 22.8759L79.3516 20.1019L78.7436 16.7579C78.3256 14.4399 77.4516 12.9959 76.5016 12.9959C75.5896 12.9959 74.3356 13.8699 73.7656 14.8579L72.8916 14.3639C73.4236 13.6799 73.9556 12.8059 74.7536 11.2859C74.9436 10.9059 74.9436 10.8679 75.1336 10.5259C76.6916 9.91789 77.2616 9.76589 78.0216 9.76589C79.2376 9.76589 80.3016 10.2599 80.9476 11.1339C81.5556 11.9319 81.9356 13.1099 82.3156 15.3519L82.4676 16.2259L84.8616 12.9199C86.3816 10.8299 87.7876 9.76589 89.0416 9.76589C89.4976 9.76589 90.0676 9.91789 90.5236 10.1459C90.0676 11.0199 89.9156 11.7419 89.6496 14.1739L88.8516 14.3639L88.5096 13.2999C88.1296 13.1479 87.9396 13.1099 87.7116 13.1099C86.7996 13.1099 85.3556 14.1739 84.2156 15.7319L82.7716 17.6699L83.1896 20.1019C83.4936 21.8119 83.9496 23.5219 84.4056 24.3959C84.6336 24.8519 85.1276 25.1559 85.6216 25.1559C86.0016 25.1559 86.3436 25.0039 87.4076 24.2439L88.5476 23.4459L89.1556 24.3199L88.4716 24.9279C85.6216 27.4739 84.1776 28.2339 83.0376 28.2339C82.3536 28.2339 81.6316 27.8539 81.1756 27.2079C80.6436 26.5239 80.3396 25.5739 80.0356 23.7119L79.6556 21.5079L76.4256 25.8399C75.3236 27.3219 73.9556 28.2339 72.8536 28.2339C72.3596 28.2339 71.9416 28.0819 71.2196 27.7019ZM91.9296 19.6839C92.6136 17.9739 92.8416 17.2139 93.0316 16.1879C94.8936 16.3779 96.4136 16.4159 98.5796 16.4159L104.014 16.3019L104.28 16.6439C103.786 17.4039 103.558 18.1259 103.14 20.0639C100.518 19.9879 99.9856 19.8739 97.9716 19.8739C95.6916 19.8739 94.3236 19.8739 92.1576 20.0259L91.9296 19.6839ZM105.939 13.9839L109.131 11.6279C110.841 10.3739 112.095 9.76589 113.007 9.76589C113.653 9.76589 114.033 10.1839 114.033 10.9059C114.033 11.9699 113.805 13.0719 112.741 16.8719L112.095 19.1519C113.425 16.8719 114.109 15.9599 115.401 14.5159C117.985 11.7039 121.025 9.76589 122.811 9.76589C123.685 9.76589 124.293 10.4119 124.293 11.3619C124.293 11.8559 124.065 13.0719 123.685 14.5159L121.861 21.5079C121.557 22.7239 121.367 23.7879 121.367 24.4719C121.367 24.8899 121.519 25.1179 121.785 25.1179C122.165 25.1179 122.583 24.8899 123.495 24.2819L124.597 23.5219L125.091 24.5479C124.711 24.8139 124.521 24.9659 123.989 25.3459C121.139 27.4739 119.619 28.2339 118.251 28.2339C117.453 28.2339 116.883 27.5499 116.883 26.6379C116.883 25.5359 117.491 22.8379 118.707 18.5819C119.277 16.6439 119.657 14.9339 119.657 14.3259C119.657 13.7939 119.391 13.5279 118.897 13.5279C117.073 13.5279 113.653 17.7079 112.171 21.7359C111.715 23.0279 111.031 25.6879 110.803 27.4359C109.435 27.5119 107.611 27.8159 106.775 28.0819L106.395 27.6639C108.143 22.4199 109.625 16.2639 109.625 14.1739C109.625 13.7559 109.473 13.5279 109.207 13.5279C108.789 13.5279 108.257 13.7559 107.649 14.1739L106.433 15.0099L105.939 13.9839ZM126.431 34.6563V34.0863L128.643 31.9431C132.108 28.5915 133.887 25.6731 133.887 23.3931C133.887 21.9795 132.929 21.0675 131.447 21.0675C130.307 21.0675 129.714 21.5007 128.871 22.9371L128.552 23.4843L127.868 23.2791L129.144 20.1783C130.307 19.3347 131.242 19.0155 132.473 19.0155C135.004 19.0155 136.668 20.5659 136.668 22.8915C136.668 24.3735 135.916 25.9695 134.594 27.2919L129.555 32.3535H134.708C135.346 32.3535 135.825 32.3079 136.577 32.1711L136.76 32.3079C136.463 32.8779 136.349 33.2655 136.007 34.6563C136.007 34.6563 133.294 34.5879 131.561 34.5879C129.555 34.5879 126.431 34.6563 126.431 34.6563Z" fill="black"/>
</svg>
